<mxfile host="Electron" agent="Mozilla/5.0 (X11; Linux x86_64) AppleWebKit/537.36 (KHTML, like Gecko) draw.io/27.0.9 Chrome/134.0.6998.205 Electron/35.4.0 Safari/537.36" version="27.0.9">
  <diagram name="Página-1" id="uEBPVEjk5trPqZ7M9bfk">
    <mxGraphModel dx="1783" dy="1094" grid="1" gridSize="10" guides="1" tooltips="1" connect="1" arrows="1" fold="1" page="1" pageScale="1" pageWidth="827" pageHeight="1169" math="0" shadow="0">
      <root>
        <mxCell id="0" />
        <mxCell id="1" parent="0" />
        <mxCell id="FWGj9NIwGu_WVEzGaLrx-1" value="Proceso de predicción de riesgo" style="swimlane;childLayout=stackLayout;resizeParent=1;resizeParentMax=0;horizontal=0;startSize=20;horizontalStack=0;html=1;movable=1;resizable=1;rotatable=1;deletable=1;editable=1;locked=0;connectable=1;" parent="1" vertex="1">
          <mxGeometry x="20" y="20" width="1590" height="600" as="geometry">
            <mxRectangle x="23" y="120" width="40" height="250" as="alternateBounds" />
          </mxGeometry>
        </mxCell>
        <mxCell id="FWGj9NIwGu_WVEzGaLrx-2" value="Ciudadano" style="swimlane;startSize=20;horizontal=0;html=1;" parent="FWGj9NIwGu_WVEzGaLrx-1" vertex="1">
          <mxGeometry x="20" width="1570" height="210" as="geometry">
            <mxRectangle x="20" width="760" height="30" as="alternateBounds" />
          </mxGeometry>
        </mxCell>
        <mxCell id="TkjVyUHCU5Bn7p3LZ1cL-27" value="" style="group" vertex="1" connectable="0" parent="FWGj9NIwGu_WVEzGaLrx-2">
          <mxGeometry x="980" y="35" width="112" height="110" as="geometry" />
        </mxCell>
        <mxCell id="TkjVyUHCU5Bn7p3LZ1cL-28" value="" style="rhombus;whiteSpace=wrap;html=1;fillColor=#fff2cc;strokeColor=#d6b656;" vertex="1" parent="TkjVyUHCU5Bn7p3LZ1cL-27">
          <mxGeometry x="16" y="30" width="80" height="80" as="geometry" />
        </mxCell>
        <mxCell id="TkjVyUHCU5Bn7p3LZ1cL-29" value="¿Desea compartir el resultado?" style="text;html=1;align=center;verticalAlign=middle;whiteSpace=wrap;rounded=0;" vertex="1" parent="TkjVyUHCU5Bn7p3LZ1cL-27">
          <mxGeometry y="-6" width="112" height="30" as="geometry" />
        </mxCell>
        <mxCell id="TkjVyUHCU5Bn7p3LZ1cL-33" value="Tomar captura de pantalla" style="whiteSpace=wrap;html=1;fillColor=#dae8fc;strokeColor=#6c8ebf;rounded=1;" vertex="1" parent="FWGj9NIwGu_WVEzGaLrx-2">
          <mxGeometry x="1120" y="75" width="120" height="60" as="geometry" />
        </mxCell>
        <mxCell id="TkjVyUHCU5Bn7p3LZ1cL-50" style="edgeStyle=orthogonalEdgeStyle;rounded=0;orthogonalLoop=1;jettySize=auto;html=1;exitX=1;exitY=0.5;exitDx=0;exitDy=0;entryX=0;entryY=0.5;entryDx=0;entryDy=0;" edge="1" parent="FWGj9NIwGu_WVEzGaLrx-2" source="TkjVyUHCU5Bn7p3LZ1cL-35" target="TkjVyUHCU5Bn7p3LZ1cL-49">
          <mxGeometry relative="1" as="geometry" />
        </mxCell>
        <mxCell id="TkjVyUHCU5Bn7p3LZ1cL-35" value="Compartir captura" style="whiteSpace=wrap;html=1;fillColor=#dae8fc;strokeColor=#6c8ebf;rounded=1;" vertex="1" parent="FWGj9NIwGu_WVEzGaLrx-2">
          <mxGeometry x="1280" y="75" width="120" height="60" as="geometry" />
        </mxCell>
        <mxCell id="TkjVyUHCU5Bn7p3LZ1cL-34" value="" style="edgeStyle=orthogonalEdgeStyle;rounded=0;orthogonalLoop=1;jettySize=auto;html=1;" edge="1" parent="FWGj9NIwGu_WVEzGaLrx-2" source="TkjVyUHCU5Bn7p3LZ1cL-28" target="TkjVyUHCU5Bn7p3LZ1cL-33">
          <mxGeometry relative="1" as="geometry" />
        </mxCell>
        <mxCell id="TkjVyUHCU5Bn7p3LZ1cL-36" value="" style="edgeStyle=orthogonalEdgeStyle;rounded=0;orthogonalLoop=1;jettySize=auto;html=1;" edge="1" parent="FWGj9NIwGu_WVEzGaLrx-2" source="TkjVyUHCU5Bn7p3LZ1cL-33" target="TkjVyUHCU5Bn7p3LZ1cL-35">
          <mxGeometry relative="1" as="geometry" />
        </mxCell>
        <mxCell id="TkjVyUHCU5Bn7p3LZ1cL-49" value="" style="ellipse;whiteSpace=wrap;html=1;aspect=fixed;fillColor=#f8cecc;strokeColor=#b85450;" vertex="1" parent="FWGj9NIwGu_WVEzGaLrx-2">
          <mxGeometry x="1450" y="85" width="40" height="40" as="geometry" />
        </mxCell>
        <mxCell id="FWGj9NIwGu_WVEzGaLrx-3" value="App Movil&amp;nbsp;" style="swimlane;startSize=20;horizontal=0;html=1;" parent="FWGj9NIwGu_WVEzGaLrx-1" vertex="1">
          <mxGeometry x="20" y="210" width="1570" height="390" as="geometry" />
        </mxCell>
        <mxCell id="TkjVyUHCU5Bn7p3LZ1cL-41" value="" style="curved=1;endArrow=classic;html=1;rounded=0;dashed=1;" edge="1" parent="FWGj9NIwGu_WVEzGaLrx-3">
          <mxGeometry width="50" height="50" relative="1" as="geometry">
            <mxPoint x="766" y="340" as="sourcePoint" />
            <mxPoint x="816" y="290" as="targetPoint" />
            <Array as="points">
              <mxPoint x="816" y="340" />
              <mxPoint x="766" y="290" />
            </Array>
          </mxGeometry>
        </mxCell>
        <mxCell id="TkjVyUHCU5Bn7p3LZ1cL-42" value="" style="shape=cylinder3;whiteSpace=wrap;html=1;boundedLbl=1;backgroundOutline=1;size=15;fillColor=#f5f5f5;strokeColor=#666666;fontColor=#333333;" vertex="1" parent="FWGj9NIwGu_WVEzGaLrx-3">
          <mxGeometry x="710" y="310" width="40" height="50" as="geometry" />
        </mxCell>
        <mxCell id="TkjVyUHCU5Bn7p3LZ1cL-21" value="&lt;div&gt;&lt;span style=&quot;background-color: transparent; color: light-dark(rgb(0, 0, 0), rgb(255, 255, 255));&quot;&gt;¿El riesgo es &quot;muy alto&quot;?&lt;/span&gt;&lt;/div&gt;" style="text;html=1;align=center;verticalAlign=middle;whiteSpace=wrap;rounded=0;" vertex="1" parent="FWGj9NIwGu_WVEzGaLrx-3">
          <mxGeometry x="618" y="30" width="112" height="30" as="geometry" />
        </mxCell>
        <mxCell id="TkjVyUHCU5Bn7p3LZ1cL-26" value="NO" style="text;html=1;align=center;verticalAlign=middle;whiteSpace=wrap;rounded=0;" vertex="1" parent="FWGj9NIwGu_WVEzGaLrx-3">
          <mxGeometry x="720" y="70" width="40" height="30" as="geometry" />
        </mxCell>
        <mxCell id="TkjVyUHCU5Bn7p3LZ1cL-3" value="" style="edgeStyle=orthogonalEdgeStyle;rounded=0;orthogonalLoop=1;jettySize=auto;html=1;" edge="1" parent="1" source="TkjVyUHCU5Bn7p3LZ1cL-1" target="TkjVyUHCU5Bn7p3LZ1cL-2">
          <mxGeometry relative="1" as="geometry" />
        </mxCell>
        <mxCell id="TkjVyUHCU5Bn7p3LZ1cL-1" value="" style="ellipse;whiteSpace=wrap;html=1;aspect=fixed;fillColor=#d5e8d4;strokeColor=#82b366;" vertex="1" parent="1">
          <mxGeometry x="90" y="90" width="40" height="40" as="geometry" />
        </mxCell>
        <mxCell id="TkjVyUHCU5Bn7p3LZ1cL-8" style="edgeStyle=orthogonalEdgeStyle;rounded=0;orthogonalLoop=1;jettySize=auto;html=1;exitX=1;exitY=0.5;exitDx=0;exitDy=0;entryX=0;entryY=0.5;entryDx=0;entryDy=0;" edge="1" parent="1" source="TkjVyUHCU5Bn7p3LZ1cL-2" target="TkjVyUHCU5Bn7p3LZ1cL-6">
          <mxGeometry relative="1" as="geometry" />
        </mxCell>
        <mxCell id="TkjVyUHCU5Bn7p3LZ1cL-2" value="Ingresar a la aplicación" style="whiteSpace=wrap;html=1;fillColor=#dae8fc;strokeColor=#6c8ebf;rounded=1;" vertex="1" parent="1">
          <mxGeometry x="170" y="80" width="120" height="60" as="geometry" />
        </mxCell>
        <mxCell id="TkjVyUHCU5Bn7p3LZ1cL-9" value="" style="group" vertex="1" connectable="0" parent="1">
          <mxGeometry x="328" y="40" width="112" height="110" as="geometry" />
        </mxCell>
        <mxCell id="TkjVyUHCU5Bn7p3LZ1cL-6" value="" style="rhombus;whiteSpace=wrap;html=1;fillColor=#fff2cc;strokeColor=#d6b656;" vertex="1" parent="TkjVyUHCU5Bn7p3LZ1cL-9">
          <mxGeometry x="16" y="30" width="80" height="80" as="geometry" />
        </mxCell>
        <mxCell id="TkjVyUHCU5Bn7p3LZ1cL-7" value="¿Tiene permisos de ubicación?" style="text;html=1;align=center;verticalAlign=middle;whiteSpace=wrap;rounded=0;" vertex="1" parent="TkjVyUHCU5Bn7p3LZ1cL-9">
          <mxGeometry y="-6" width="112" height="30" as="geometry" />
        </mxCell>
        <mxCell id="TkjVyUHCU5Bn7p3LZ1cL-15" value="" style="edgeStyle=orthogonalEdgeStyle;rounded=0;orthogonalLoop=1;jettySize=auto;html=1;" edge="1" parent="1" source="TkjVyUHCU5Bn7p3LZ1cL-10" target="TkjVyUHCU5Bn7p3LZ1cL-14">
          <mxGeometry relative="1" as="geometry" />
        </mxCell>
        <mxCell id="TkjVyUHCU5Bn7p3LZ1cL-10" value="Enviar longitud y latitud al modelo" style="whiteSpace=wrap;html=1;fillColor=#dae8fc;strokeColor=#6c8ebf;rounded=1;" vertex="1" parent="1">
          <mxGeometry x="324" y="310" width="120" height="60" as="geometry" />
        </mxCell>
        <mxCell id="TkjVyUHCU5Bn7p3LZ1cL-11" value="" style="edgeStyle=orthogonalEdgeStyle;rounded=0;orthogonalLoop=1;jettySize=auto;html=1;" edge="1" parent="1" source="TkjVyUHCU5Bn7p3LZ1cL-6" target="TkjVyUHCU5Bn7p3LZ1cL-10">
          <mxGeometry relative="1" as="geometry" />
        </mxCell>
        <mxCell id="TkjVyUHCU5Bn7p3LZ1cL-12" value="SÍ" style="text;html=1;align=center;verticalAlign=middle;whiteSpace=wrap;rounded=0;" vertex="1" parent="1">
          <mxGeometry x="330" y="150" width="40" height="30" as="geometry" />
        </mxCell>
        <mxCell id="TkjVyUHCU5Bn7p3LZ1cL-13" value="NO" style="text;html=1;align=center;verticalAlign=middle;whiteSpace=wrap;rounded=0;" vertex="1" parent="1">
          <mxGeometry x="434" y="70" width="40" height="30" as="geometry" />
        </mxCell>
        <mxCell id="TkjVyUHCU5Bn7p3LZ1cL-22" style="edgeStyle=orthogonalEdgeStyle;rounded=0;orthogonalLoop=1;jettySize=auto;html=1;exitX=1;exitY=0.5;exitDx=0;exitDy=0;entryX=0;entryY=0.5;entryDx=0;entryDy=0;" edge="1" parent="1" source="TkjVyUHCU5Bn7p3LZ1cL-14" target="TkjVyUHCU5Bn7p3LZ1cL-20">
          <mxGeometry relative="1" as="geometry" />
        </mxCell>
        <mxCell id="TkjVyUHCU5Bn7p3LZ1cL-14" value="Mostrar el nivel de riesgo" style="whiteSpace=wrap;html=1;fillColor=#dae8fc;strokeColor=#6c8ebf;rounded=1;" vertex="1" parent="1">
          <mxGeometry x="505" y="310" width="120" height="60" as="geometry" />
        </mxCell>
        <mxCell id="TkjVyUHCU5Bn7p3LZ1cL-17" value="" style="ellipse;whiteSpace=wrap;html=1;aspect=fixed;fillColor=#f8cecc;strokeColor=#b85450;" vertex="1" parent="1">
          <mxGeometry x="484" y="90" width="40" height="40" as="geometry" />
        </mxCell>
        <mxCell id="TkjVyUHCU5Bn7p3LZ1cL-18" style="edgeStyle=orthogonalEdgeStyle;rounded=0;orthogonalLoop=1;jettySize=auto;html=1;exitX=1;exitY=0.5;exitDx=0;exitDy=0;" edge="1" parent="1" source="TkjVyUHCU5Bn7p3LZ1cL-6" target="TkjVyUHCU5Bn7p3LZ1cL-17">
          <mxGeometry relative="1" as="geometry" />
        </mxCell>
        <mxCell id="TkjVyUHCU5Bn7p3LZ1cL-40" value="" style="edgeStyle=orthogonalEdgeStyle;rounded=0;orthogonalLoop=1;jettySize=auto;html=1;" edge="1" parent="1" source="TkjVyUHCU5Bn7p3LZ1cL-23" target="TkjVyUHCU5Bn7p3LZ1cL-39">
          <mxGeometry relative="1" as="geometry" />
        </mxCell>
        <mxCell id="TkjVyUHCU5Bn7p3LZ1cL-23" value="Hacer sonar una alerta" style="whiteSpace=wrap;html=1;fillColor=#dae8fc;strokeColor=#6c8ebf;rounded=1;" vertex="1" parent="1">
          <mxGeometry x="656" y="455" width="120" height="60" as="geometry" />
        </mxCell>
        <mxCell id="TkjVyUHCU5Bn7p3LZ1cL-24" value="" style="edgeStyle=orthogonalEdgeStyle;rounded=0;orthogonalLoop=1;jettySize=auto;html=1;" edge="1" parent="1" source="TkjVyUHCU5Bn7p3LZ1cL-20" target="TkjVyUHCU5Bn7p3LZ1cL-23">
          <mxGeometry relative="1" as="geometry" />
        </mxCell>
        <mxCell id="TkjVyUHCU5Bn7p3LZ1cL-25" value="SÍ" style="text;html=1;align=center;verticalAlign=middle;whiteSpace=wrap;rounded=0;" vertex="1" parent="1">
          <mxGeometry x="667" y="380" width="40" height="30" as="geometry" />
        </mxCell>
        <mxCell id="TkjVyUHCU5Bn7p3LZ1cL-44" style="edgeStyle=orthogonalEdgeStyle;rounded=0;orthogonalLoop=1;jettySize=auto;html=1;exitX=1;exitY=0.5;exitDx=0;exitDy=0;" edge="1" parent="1" source="TkjVyUHCU5Bn7p3LZ1cL-20" target="TkjVyUHCU5Bn7p3LZ1cL-39">
          <mxGeometry relative="1" as="geometry" />
        </mxCell>
        <mxCell id="TkjVyUHCU5Bn7p3LZ1cL-20" value="" style="rhombus;whiteSpace=wrap;html=1;fillColor=#fff2cc;strokeColor=#d6b656;" vertex="1" parent="1">
          <mxGeometry x="676" y="300" width="80" height="80" as="geometry" />
        </mxCell>
        <mxCell id="TkjVyUHCU5Bn7p3LZ1cL-46" style="edgeStyle=orthogonalEdgeStyle;rounded=0;orthogonalLoop=1;jettySize=auto;html=1;exitX=1;exitY=0.5;exitDx=0;exitDy=0;entryX=0.5;entryY=1;entryDx=0;entryDy=0;" edge="1" parent="1" source="TkjVyUHCU5Bn7p3LZ1cL-39" target="TkjVyUHCU5Bn7p3LZ1cL-28">
          <mxGeometry relative="1" as="geometry" />
        </mxCell>
        <mxCell id="TkjVyUHCU5Bn7p3LZ1cL-39" value="Guardar el registro en historial" style="whiteSpace=wrap;html=1;fillColor=#dae8fc;strokeColor=#6c8ebf;rounded=1;" vertex="1" parent="1">
          <mxGeometry x="856" y="455" width="134" height="60" as="geometry" />
        </mxCell>
      </root>
    </mxGraphModel>
  </diagram>
</mxfile>
